<?xml version="1.0" standalone="no"?>
<!DOCTYPE svg PUBLIC "-//W3C//DTD SVG 20010904//EN"
 "http://www.w3.org/TR/2001/REC-SVG-20010904/DTD/svg10.dtd">
<svg version="1.0" xmlns="http://www.w3.org/2000/svg"
 width="2013.000000pt" height="1122.000000pt" viewBox="0 0 2013.000000 1122.000000"
 preserveAspectRatio="xMidYMid meet">
<metadata>
Created by potrace 1.10, written by Peter Selinger 2001-2011
</metadata>
<g transform="translate(0.000000,1122.000000) scale(0.100000,-0.100000)"
fill="#fb8500" stroke="none">
<path d="M0 10465 l0 -755 6743 2 6742 3 3 753 2 752 -6745 0 -6745 0 0 -755z"/>
<path d="M55 8208 c-3 -7 -4 -330 -3 -718 l3 -705 6715 0 6715 0 0 715 0 715
-6713 3 c-5365 2 -6714 0 -6717 -10z"/>
<path d="M60 5232 c-7 -3 -10 -271 -10 -778 l0 -774 6718 2 6717 3 3 773 c1
424 -1 772 -5 772 -1673 2 -13416 4 -13423 2z"/>
</g>
</svg>
