<svg xmlns="http://www.w3.org/2000/svg" viewBox="0 0 226.77 226.77"><defs><style>.cls-1{fill:#fbb03b;}.cls-2{fill:#838bc5;}.cls-3{fill:#c1272d;}.cls-4{fill:none;}</style></defs><title>Asset 2</title><g id="Layer_2" data-name="Layer 2"><g id="Layer_1-2" data-name="Layer 1"><path class="cls-1" d="M226.77,226.77,214.32,0H185.18l-3.41,5.38L170.3,23.49h0L144.57,64.13l-31.19,49.26-9.26-14.57L82.06,64.13l-9.54-15L41.28,0H11L0,226.77H32.92V207.55H13.7V190.17H32.92V171H41.4V64.13L52.14,82,71,113.39,95.4,154.13h36l24.44-40.74L185.18,64.5l.22-.37V226.77Z"/><path class="cls-2" d="M103,111.81c0,40.82,32.11,76.12,78.75,93v18.85c-75.94-6.22-135-53.91-135-111.81S105.83,6.22,181.77,0V18.85C135.13,35.69,103,71,103,111.81Z"/><rect class="cls-3" x="41.4" y="170.95" width="8.89" height="55.82"/><rect class="cls-3" x="41.4" y="190.17" width="28.11" height="17.38"/><line class="cls-4" x1="10.97" y2="226.77"/><line class="cls-4" x1="226.77" y1="226.77" x2="214.32"/></g></g></svg>